<svg width="351" height="351" viewBox="0 0 351 351" fill="none" xmlns="http://www.w3.org/2000/svg">
<g clip-path="url(#clip0_414_490)">
<path d="M66.7698 290.99C67.0605 291.268 67.3586 291.542 67.6571 291.82L78.7617 276.051C87.9655 257.948 91.5558 241.454 91.6652 227.378C91.5134 219.863 90.4792 212.411 88.5795 205.173C87.2587 200.802 86.2692 196.332 85.6191 191.8C85.6135 191.75 85.5949 191.689 85.5889 191.634L85.6018 191.645C85.168 188.596 84.8936 185.53 84.7746 182.446C82.8523 132.621 121.561 89.9487 171.231 87.1307L170.88 86.8039C182.736 86.0508 199.973 88.6809 214.446 84.8583C229.452 80.5945 243.093 72.3391 253.912 60.9742C254.456 60.4178 255.039 59.928 255.657 59.5011L265.834 45.0518C223.196 15.4565 166.896 7.35674 115.259 28.4597C34.1862 61.5992 -4.67576 154.19 28.4602 235.267C36.7451 255.536 48.7463 273.167 63.3533 287.695C64.473 288.809 65.6061 289.903 66.7698 290.99Z" fill="#FFFDFD" stroke="white" stroke-width="0.25" stroke-miterlimit="10"/>
<path d="M273.302 72.51C273.071 73.2637 272.76 74.0066 272.368 74.7232C262.791 92.6906 258.714 119.801 259.566 130.496C260.991 148.321 266.448 159.865 264.778 173.497L264.752 173.477C266.028 222.941 227.38 264.925 178.093 267.614C178.062 267.618 178.035 267.621 178.004 267.624C167.153 268.313 165.891 267.269 155.934 267.716C135.404 268.632 113.545 277.188 98.3542 293.227L88.1909 307.659C91.1078 309.577 94.0688 311.432 97.0562 313.24C98.4211 314.012 99.7956 314.765 101.179 315.496C141.247 336.637 190.045 340.547 235.26 322.068C316.337 288.928 355.2 196.341 322.06 115.264C312.991 93.0798 299.473 74.0551 282.955 58.7997L273.295 72.5148L273.302 72.51Z" fill="#FFFDFD" stroke="white" stroke-width="0.25" stroke-miterlimit="10"/>
<path d="M115.145 129.612C116.179 128.332 117.245 127.092 118.33 125.881C117.272 127.05 116.233 128.252 115.235 129.5C115.203 129.539 115.176 129.573 115.145 129.612Z" fill="#FFFDFD" stroke="white" stroke-width="0.25" stroke-miterlimit="10"/>
</g>
<defs>
<clipPath id="clip0_414_490">
<rect width="317.362" height="317.362" fill="white" transform="translate(0 35.1123) rotate(-6.35202)"/>
</clipPath>
</defs>
</svg>
